# xmcd CD database file generated by OrangeCD 6.2
#
# Track frame offsets:
#	150
#	20090
#	35393
#	57462
#	78272
#	103238
#	128383
#	155830
#	171025
#	198769
#	212840
#	228694
#	250953
#
# Disc length: 3583 seconds
#
# Revision: 0
# Processed by: cddbd v1.5.2PL0 Copyright (c) Steve Scherf et al.
# Submitted via: OrangeCD 6.2
#
DISCID=b00dfd0d
DTITLE=Dana Wylie - The Unruly Ones
DYEAR=2008
DGENRE=Rock
TTITLE0=Talent Crush
TTITLE1=The Unruly Ones
TTITLE2=The Seer
TTITLE3=Anyone But You
TTITLE4=What The Mirror Said
TTITLE5=The Ballad Of June And Dougie (I'm Not Gonna Play Second Fiddle To Your
TTITLE5=Guitar)
TTITLE6=Hometown Boy
TTITLE7=Out Here
TTITLE8=What's Here Now
TTITLE9=Fear No More
TTITLE10=One Lucky Bastard
TTITLE11=Dreams Like That
TTITLE12=St. James Parish Bus
EXTD=
EXTT0=
EXTT1=
EXTT2=
EXTT3=
EXTT4=
EXTT5=
EXTT6=
EXTT7=
EXTT8=
EXTT9=
EXTT10=
EXTT11=
EXTT12=
PLAYORDER=
